<svg width="112" height="112" viewBox="0 0 112 112" fill="none" xmlns="http://www.w3.org/2000/svg">
<g clip-path="url(#clip0_2879_17855)">
<mask id="mask0_2879_17855" style="mask-type:alpha" maskUnits="userSpaceOnUse" x="0" y="0" width="112" height="112">
<circle cx="56" cy="56" r="56" fill="#C4C4C4"/>
</mask>
<g mask="url(#mask0_2879_17855)">
<rect x="-7.09717" y="-3.01636" width="125.691" height="125.691" fill="#EAEFF4"/>
<circle opacity="0.2" cx="55.4973" cy="173.957" r="114.128" fill="#7CA5B9"/>
</g>
<path d="M71.8638 54.8263C71.8638 54.8263 71.8594 54.8263 71.855 54.8263C70.8488 54.6075 69.6675 54.3232 68.5738 53.9469C67.3094 53.5182 66.1544 52.98 65.5113 52.3019C64.6757 51.4182 64.4569 50.3069 64.4482 49.305C64.4482 48.8019 64.5313 47.2182 64.6582 46.8244C64.6626 46.8157 62.2301 46.8113 59.7801 46.8113C57.3344 46.8113 54.8975 46.82 54.9019 46.8244C55.0288 47.2182 55.1163 48.8019 55.1119 49.305C55.1032 50.3069 54.8844 51.4182 54.0488 52.3019C53.4057 52.98 52.2507 53.5182 50.9863 53.9469C49.8926 54.3232 48.7069 54.6075 47.7051 54.8263C47.7051 54.8263 47.7007 54.8263 47.6963 54.8263C46.4713 54.905 44.8438 55.0888 43.5444 56.5019C47.1101 61.2225 53.0513 64.3113 59.7801 64.3113C66.5088 64.3113 72.45 61.2225 76.0157 56.5019C74.7207 55.0888 73.0932 54.9094 71.8638 54.8263Z" fill="white"/>
<path opacity="0.1" d="M59.8938 32.8768H59.6707C53.5501 33.065 52.5132 35.8431 51.822 39.8243C51.6076 41.0581 52.7145 44.7943 52.7145 44.7943C52.7188 45.3368 55.0419 50.2675 58.4457 52.1181C58.6251 52.2143 59.452 52.2231 59.7801 52.2187C60.1082 52.2187 60.9351 52.2143 61.1145 52.1181C64.5182 50.2675 66.907 45.3325 66.9114 44.7943C66.9114 44.7943 67.9526 41.0581 67.7426 39.8243C67.0776 35.9875 66.0188 33.065 59.8938 32.8768Z" fill="#333333"/>
<path d="M67.7951 40.1175C67.8739 39.1025 67.7952 38.1531 67.7864 37.4531V37.3918C67.7864 37.0462 67.7689 36.7618 67.7383 36.5693C67.0514 31.9056 66.0145 28.6418 59.8895 28.4231H59.6664C53.5457 28.6418 52.5089 31.9056 51.8176 36.5693C51.787 36.7618 51.7739 37.0462 51.7695 37.3918C51.7695 37.4093 51.7695 37.4268 51.7695 37.4443V37.4531C51.7695 38.1531 51.8089 39.1025 51.8832 40.1175C52.0582 42.4056 52.417 45.0306 52.837 45.9143C53.817 48.0318 54.4995 48.815 57.8551 50.9543C57.8726 50.9675 57.8945 50.9806 57.912 50.9893C57.9951 51.0418 58.8614 51.2606 59.7364 51.2606C60.6289 51.2606 61.5301 51.0418 61.6176 50.9893C61.6351 50.9762 61.657 50.9675 61.6745 50.9543C65.0301 48.815 65.7301 48.0318 66.7101 45.9187C67.1301 45.0306 67.6114 42.4056 67.7864 40.1175H67.7951Z" fill="white"/>
<path d="M49.315 63.3006C50.5444 64.5388 48.3962 68.2444 47.8975 70.6725L47.1844 71.7838C47.2281 72.6894 47.3156 73.8138 47.4075 74.5356H72.1613C72.2531 73.8094 72.3363 72.685 72.3844 71.7838L72.1831 70.7513C71.6844 68.3231 69.1688 65.0025 70.3981 63.76C71.4613 62.6881 77.77 61.4938 77.5163 60.2338C76.4969 55.2069 73.5263 55.4431 71.5969 55.3206C71.5969 55.3206 71.6581 55.4869 71.6538 55.4825C70.7831 55.2988 69.8294 54.1044 68.8669 53.8069C68.7531 54.9531 61.2894 63.235 59.7888 63.4888C58.2881 63.2394 50.82 54.9488 50.7062 53.8113C49.7437 54.1088 48.7463 54.9181 47.8756 55.1019C45.9463 55.2244 43.0806 55.2069 42.0612 60.2338C41.8075 61.4894 48.2562 62.2244 49.3194 63.2963L49.315 63.3006Z" fill="#333333"/>
<path fill-rule="evenodd" clip-rule="evenodd" d="M78.7719 74.5356C78.68 73.105 78.2381 62.9419 77.8269 60.8463C77.7306 60.3606 77.6169 59.9144 77.49 59.5031C76.3831 54.8525 73.5438 54.9444 71.715 54.345H71.7062C70.8356 54.1525 69.8338 53.505 68.8713 53.1988C67.0906 51.7813 65.2094 51.2344 64.7981 51.195C66.5044 54.7256 65.8438 57.495 64.7238 61.0081C63.5075 64.81 60.1693 71.9806 59.7056 73.2669C59.6793 73.28 59.6575 73.2888 59.6313 73.2931C59.6094 73.2931 59.5875 73.28 59.5656 73.2713C59.0975 71.9281 55.9256 64.7575 54.7663 60.9556C53.6944 57.425 53.095 54.5244 54.8537 51.02C54.3987 51.0594 52.115 51.6631 50.1375 53.4088C49.3543 53.7369 48.5669 54.1831 47.8713 54.3406H47.8625C45.7319 55.045 43.2075 54.8613 42.1094 59.42C41.9694 59.8531 41.8469 60.3256 41.7463 60.8419C41.3306 62.9375 40.8931 73.1006 40.8012 74.5313C40.8012 74.5706 40.7969 74.61 40.7925 74.645H78.7893C78.7893 74.6056 78.785 74.5663 78.7806 74.5313L78.7719 74.5356Z" fill="#333333"/>
<path d="M49.0351 66.057C47.6219 66.9407 46.9394 67.9732 46.9394 67.9732C46.6857 64.8888 45.7275 62.7626 45.7275 62.7626C46.2132 65.2694 46.3794 67.3826 46.445 68.8963C46.305 70.4013 46.2875 72.7332 46.2744 74.6494H48.4707C47.3157 73.6476 46.8388 72.3263 46.8125 71.4994C46.7907 70.8082 46.9831 69.4563 47.1888 68.927C47.81 67.3388 49.0307 66.057 49.0307 66.057H49.0351Z" fill="#222222"/>
<path d="M73.8544 62.7626C73.8544 62.7626 72.8963 64.8844 72.6425 67.9732C72.6425 67.9732 71.9644 66.9407 70.5469 66.057C70.5469 66.057 71.7719 67.3388 72.3887 68.927C72.5944 69.4563 72.7869 70.8082 72.7694 71.4994C72.7432 72.3263 72.24 73.6476 71.0675 74.6494H73.3031C73.29 72.7332 73.2725 70.4013 73.1325 68.8963C73.1938 67.3826 73.36 65.2694 73.85 62.7626H73.8544Z" fill="#222222"/>
<path d="M59.6662 73.4069H59.5918V74.6494H59.6662V73.4069Z" fill="#34404D"/>
<path opacity="0.1" d="M65.2182 58.6762C64.7413 57.3024 65.8525 55.2287 64.8244 52.9099C63.3325 49.5456 64.9644 48.3731 65.5813 47.0956C66.5132 45.1749 66.955 42.2481 67.0338 39.9556C67.1081 37.8031 66.6138 37.3262 66.4825 35.7424C66.4825 35.7424 66.3294 32.8549 64.3081 32.9293C64.3081 32.9293 63.7044 31.6737 61.1888 33.2968C62.2388 39.9468 64.1507 56.0337 59.78 64.3112" fill="#333333"/>
<path fill-rule="evenodd" clip-rule="evenodd" d="M70.9669 54.0825C71.4176 54.4368 72.2619 54.38 73.2201 54.6118C71.8463 53.2425 72.1788 52.5162 72.4151 50.5518C72.6426 48.6356 70.7526 46.5881 70.7439 46.5925C71.1682 43.1493 73.0626 41.6356 70.6257 37.1381C69.9476 35.8825 69.9082 34.4737 69.5407 33.275C67.4407 26.4543 63.757 27.3031 63.6738 27.2112C63.4945 26.835 62.5364 26.3493 61.552 26.1175C54.4207 24.4506 51.6951 30.0462 50.8988 32.5181C50.2294 34.6006 49.547 35.7425 48.5101 37.4181C46.0645 41.3687 48.1294 43.2412 48.8294 46.6012C48.2957 47.7168 46.9788 48.6443 47.202 50.5518C47.4338 52.5162 47.7707 53.3606 46.397 54.73C47.3945 54.4893 48.0682 54.4325 48.5451 54.0868C48.6851 54.9487 49.0307 56.1693 49.687 56.9831C51.1176 58.7725 51.8307 60.2118 50.1289 61.9356C53.8214 60.7062 54.1057 59.5075 54.3901 58.6806C54.867 57.3068 53.7251 55.4081 54.5782 53.0806C55.5932 50.3025 55.7901 50.2543 54.1013 47.2093C53.5851 46.2818 52.7451 41.5743 52.8326 39.8068C52.8326 39.7325 53.0382 39.6493 53.1345 39.6056C57.6101 37.4881 57.6495 36.1056 59.9376 34.2156C63.5076 31.2712 64.3038 32.925 64.3038 32.925C66.3251 32.8506 66.4782 35.7381 66.4782 35.7381C66.6095 37.3218 67.1038 37.8031 67.0294 39.9512C66.9507 42.2437 66.5088 45.1706 65.577 47.0912C64.9557 48.3687 63.3282 49.5412 64.8201 52.9056C65.8438 55.2243 64.737 57.2981 65.2139 58.6718C65.5026 59.5031 65.787 60.7018 69.4751 61.9268C67.7776 60.2031 68.4864 58.7637 69.917 56.9743C70.4945 56.2525 70.8139 54.9925 70.9582 54.0737L70.9669 54.0825Z" fill="#222222"/>
<path d="M36.6056 60.0369L32.0469 77.3794C37.5987 79.1775 49.875 83.1762 54.5475 84.7687C59.22 86.3612 61.9981 86.0025 62.8075 85.6219L88.865 74.1112C86.9269 70.585 82.4557 70.97 80.7494 70.97C80.7494 70.97 70.3763 74.1419 62.8075 74.1112C59.325 74.0981 57.2119 72.9956 57.2119 72.9956C47.8275 69.8762 36.6056 60.0412 36.6056 60.0412V60.0369Z" fill="white"/>
<path d="M25.4583 79.3568H35.2801C35.2801 79.3568 41.0857 66.1968 41.8251 59.9581C39.2307 58.1424 25.4626 57.5387 25.4626 57.5387V79.3568H25.4583Z" fill="#D30A48"/>
<path d="M23.1875 80.2625H31.6444C31.6444 80.2625 36.645 65.0506 37.2794 57.8363C35.0437 55.7363 23.1875 55.0363 23.1875 55.0363V80.2625Z" fill="#F41C5E"/>
<path opacity="0.3" d="M56.0831 97.4736C67.7294 97.4736 77.1663 96.5724 77.1663 95.4655C77.1663 94.3586 67.725 93.4574 56.0831 93.4574C44.4412 93.4574 35 94.3586 35 95.4655C35 96.5724 44.4412 97.4736 56.0831 97.4736Z" fill="#7CA5B9"/>
</g>
<defs>
<clipPath id="clip0_2879_17855">
<rect width="112" height="112" fill="white"/>
</clipPath>
</defs>
</svg>
