<svg width="112" height="112" viewBox="0 0 112 112" fill="none" xmlns="http://www.w3.org/2000/svg">
<mask id="mask0_3094_21229" style="mask-type:alpha" maskUnits="userSpaceOnUse" x="0" y="0" width="112" height="112">
<circle cx="56" cy="56" r="56" fill="#C4C4C4"/>
</mask>
<g mask="url(#mask0_3094_21229)">
<rect x="-7.09717" y="-3.01636" width="125.691" height="125.691" fill="#EAEFF4"/>
<circle opacity="0.2" cx="55.4973" cy="173.957" r="114.128" fill="#7CA5B9"/>
</g>
<path opacity="0.3" d="M55.5625 97.5625C70.5435 97.5625 82.6875 96.3884 82.6875 94.9375C82.6875 93.4866 70.5435 92.3125 55.5625 92.3125C40.5815 92.3125 28.4375 93.4866 28.4375 94.9375C28.4375 96.3884 40.5815 97.5625 55.5625 97.5625Z" fill="#7CA5B9"/>
<path d="M90.9127 99.5804C82.8285 94.117 70.1972 90.6002 56 90.6002C41.8029 90.6002 29.1716 94.117 21.0874 99.5804C30.6612 107.225 42.7952 111.797 56 111.797C69.2048 111.797 81.3389 107.225 90.9127 99.5804Z" fill="#F41C5E"/>
<path d="M75.5392 61.5855C75.0576 59.8629 72.4883 61.0837 72.4883 61.0837L72.2957 61.0994C72.4166 52.63 70.385 45.5202 55.9997 45.2604C41.6144 45.5225 39.5827 52.63 39.7037 61.0994L39.511 61.0815C39.511 61.0815 36.9418 59.8629 36.4602 61.5855C35.9786 63.3081 37.0202 68.5452 38.3059 70.0527C39.016 70.886 39.7238 71.213 40.2166 71.3407L40.2278 71.5602C40.5101 74.0197 40.7901 76.4412 41.9415 77.9868C42.8935 79.221 43.8791 80.5941 44.9744 81.9269V85.0876C44.9744 90.9004 39.3878 92.3004 39.3878 92.3004H39.3901C39.3901 92.3004 40.0487 92.9993 41.0791 93.5929C43.1443 94.7689 48.5943 97.5621 55.9975 97.5935C63.3984 97.5621 68.8506 94.7711 70.9158 93.5929C71.9462 93.0015 72.6048 92.3004 72.6048 92.3004H72.6071C72.6071 92.3004 67.0205 90.9004 67.0205 85.0876V81.9269C68.1159 80.5919 69.1014 79.221 70.0534 77.9868C71.2048 76.4412 71.4848 74.0197 71.7671 71.5602L71.7783 71.3407C72.271 71.213 72.9811 70.886 73.689 70.0527C74.9747 68.5452 76.0163 63.3081 75.5347 61.5855H75.5392Z" fill="white"/>
<path d="M73.1497 49.2049C73.0713 49.1041 73.3289 47.5384 71.7228 45.2379C71.1561 44.427 70.2982 43.4593 69.1356 42.5409C65.4262 39.6088 59.9584 38.2939 51.6636 39.6491C47.9072 40.2629 46.3593 39.107 46.3571 37.5928C45.3872 38.9211 41.5478 39.9157 40.896 43.3473C40.8355 40.0747 42.8067 39.2571 44.2806 38.5963C38.0467 39.3355 37.294 44.5435 38.0937 47.1419C38.1385 47.2136 38.1363 47.2181 38.0937 47.1419C36.8057 45.0341 37.2313 43.6385 37.9504 42.4894C36.2972 43.5915 36.0486 45.2491 35.8694 47.1486C35.7081 48.86 36.2569 50.7573 37.1171 52.2693C37.5561 53.0421 38.0041 53.7969 38.0041 53.7969C36.3084 55.7861 37.9168 63.4043 38.0736 64.1704C38.3468 64.3316 38.9584 65.0798 39.5184 66.043C40.7795 68.2113 40.6608 68.7422 41.2902 70.2049C41.3328 70.3035 40.8736 62.5397 40.8825 61.7803C40.9161 59.0766 41.3417 57.8984 41.718 57.3876C42.7417 57.9342 43.7609 58.147 44.7264 58.3509C47.3315 58.8974 50.5929 58.6421 55.9107 56.4469C56.6544 56.1624 57.3555 55.9003 58.0185 55.6629C63.1728 53.9448 67.926 53.9515 69.4784 53.7633C69.5635 53.7521 69.6486 53.7387 69.7337 53.7208C69.7875 54.2897 69.9129 56.0593 70.8492 58.1C71.1427 58.7384 71.855 60.4094 71.7296 62.6382C71.687 63.3953 71.808 68.9349 71.678 70.2072C72.2179 68.1733 73.1116 66.612 73.4028 66.1102C73.8508 65.3419 74.59 64.4033 74.8432 64.1726C75.0336 63.0616 75.6182 56.8993 75.6451 56.0235C75.6921 54.5272 75.7347 51.1045 73.1475 49.2005L73.1497 49.2049Z" fill="#333333"/>
<path d="M55.9999 36.3496C55.9999 36.3496 50.4694 30.2568 48.7266 28.1243C47.8127 27.0581 47.2998 25.7051 47.2796 24.2984C47.2214 22.9298 47.7074 21.5925 48.6326 20.5823C49.5554 19.5698 50.8434 18.9672 52.2098 18.9C52.949 18.909 53.677 19.0904 54.3356 19.4287C54.9942 19.7669 55.5631 20.2552 55.9999 20.8533C56.4367 20.2552 57.0057 19.7669 57.6642 19.4287C58.3228 19.0904 59.0508 18.909 59.79 18.9C61.1586 18.965 62.4444 19.5698 63.3673 20.5823C64.2902 21.5947 64.7785 22.9298 64.7202 24.2984C64.7001 25.7029 64.1894 27.0559 63.2732 28.1243C61.5305 30.2568 55.9999 36.3496 55.9999 36.3496Z" fill="#F41C5E"/>
<path opacity="0.2" d="M57.6643 19.4309C57.0058 19.7691 56.4368 20.2575 56 20.8555C60.0029 20.4591 65.6096 23.0015 56 36.3496C56 36.3496 61.5306 30.2568 63.2733 28.1243C64.1872 27.0581 64.7002 25.7051 64.7203 24.2984C64.7786 22.9298 64.2925 21.5925 63.3674 20.5823C62.4445 19.5698 61.1565 18.9672 59.7901 18.9C59.0509 18.909 58.3229 19.0904 57.6643 19.4287V19.4309Z" fill="#333333"/>
</svg>
